<svg width="19" height="16" viewBox="0 0 19 16" fill="none" xmlns="http://www.w3.org/2000/svg">
<path fill-rule="evenodd" clip-rule="evenodd" d="M5.97457 16C13.1449 16 17.0666 9.84356 17.0666 4.50799C17.0666 4.33408 17.0666 4.16017 17.0551 3.98626C17.8203 3.41312 18.479 2.70409 19 1.89255C18.2891 2.21998 17.5342 2.43568 16.7606 2.53248C17.5776 2.02313 18.1867 1.2271 18.4748 0.292367C17.7114 0.764191 16.8736 1.09621 15.9991 1.27333C15.4641 0.68349 14.7675 0.273486 14.0008 0.0970581C13.2342 -0.0793698 12.4334 -0.0138986 11.7037 0.284895C10.9741 0.583688 10.3497 1.10161 9.91265 1.77094C9.4756 2.44028 9.24635 3.22945 9.25503 4.03483C9.25432 4.34617 9.28824 4.65663 9.35613 4.96009C7.80158 4.87847 6.28157 4.46004 4.89635 3.73219C3.51114 3.00434 2.29219 1.98374 1.31991 0.737673C0.821867 1.62701 0.669538 2.67634 0.893349 3.6758C1.11716 4.67527 1.70064 5.55124 2.52719 6.12889C1.90853 6.1084 1.30359 5.93653 0.762774 5.62788C0.762774 5.64179 0.762774 5.66288 0.762774 5.67679C0.759505 6.60493 1.06898 7.5058 1.63888 8.22702C2.20879 8.94824 3.00415 9.44551 3.89052 9.63495C3.55626 9.73317 3.21013 9.78232 2.86242 9.78101C2.61648 9.78033 2.3712 9.75479 2.13018 9.70458C2.37459 10.5043 2.85727 11.2052 3.51041 11.7093C4.16355 12.2134 4.95432 12.4953 5.77165 12.515C4.39352 13.6331 2.68727 14.241 0.929716 14.2402C0.619048 14.2392 0.308673 14.2206 9.60936e-06 14.1845C1.77795 15.3712 3.85431 16.0019 5.97594 16" fill="#27A8E1"/>
</svg>
